<?xml version="1.0" standalone="no"?>
<!DOCTYPE svg PUBLIC "-//W3C//DTD SVG 20010904//EN"
 "http://www.w3.org/TR/2001/REC-SVG-20010904/DTD/svg10.dtd">
<svg version="1.0" xmlns="http://www.w3.org/2000/svg"
 width="512.000000pt" height="512.000000pt" viewBox="0 0 512.000000 512.000000"
 preserveAspectRatio="xMidYMid meet">
<metadata>
Created by potrace 1.14, written by Peter Selinger 2001-2017
</metadata>
<g transform="translate(0.000000,512.000000) scale(0.100000,-0.100000)"
fill="#000000" stroke="none">
<path d="M2399 5115 c-2 -2 -27 -6 -54 -8 -241 -22 -518 -152 -692 -325 -120
-118 -204 -262 -242 -415 -16 -66 -23 -78 -83 -137 -102 -103 -171 -244 -185
-379 -8 -81 -8 -88 1 -177 7 -67 6 -75 -19 -115 -36 -56 -54 -100 -75 -179
-21 -82 -19 -241 4 -325 45 -159 159 -308 297 -386 33 -19 69 -41 80 -49 15
-12 248 -574 369 -890 10 -25 61 -153 115 -285 53 -132 137 -341 187 -465 49
-124 96 -238 103 -255 7 -16 68 -167 135 -335 67 -168 129 -319 137 -337 24
-51 110 -68 147 -30 15 16 21 30 148 347 60 151 116 289 123 305 8 17 63 154
123 305 182 455 222 554 232 575 5 11 77 191 160 400 83 209 158 396 166 415
9 19 34 82 58 140 l42 105 72 40 c99 55 171 121 231 210 129 193 144 450 38
648 -29 55 -30 62 -20 110 15 72 16 215 3 273 -45 193 -143 326 -329 447 -26
17 -38 35 -51 79 -90 295 -379 550 -734 647 -69 19 -96 25 -171 37 -39 7 -311
15 -316 9z m281 -199 c178 -26 364 -104 497 -211 132 -106 217 -229 252 -366
29 -114 35 -122 118 -165 120 -61 214 -180 242 -305 14 -63 7 -206 -13 -253
-24 -57 -20 -105 12 -157 56 -91 71 -136 78 -249 5 -71 3 -95 -16 -149 -43
-128 -143 -230 -265 -270 -156 -51 -304 -24 -434 79 -95 75 -153 69 -199 -23
-48 -96 -163 -196 -267 -232 -199 -68 -427 18 -540 206 -60 98 -108 108 -193
41 -52 -42 -112 -70 -179 -86 -63 -14 -178 -12 -233 5 -187 56 -322 224 -334
412 -6 104 32 239 83 294 26 27 51 78 51 102 0 11 -7 48 -16 83 -42 164 25
353 162 459 66 51 69 56 89 150 31 148 81 243 185 350 155 159 376 262 610
286 30 3 56 6 57 8 6 4 210 -3 253 -9z m-597 -2355 c26 -26 76 -64 110 -85 35
-20 94 -67 131 -105 l69 -70 -25 -29 c-14 -17 -61 -68 -105 -114 -44 -45 -110
-114 -147 -153 l-66 -70 -48 51 c-176 189 -207 228 -228 279 l-22 54 45 48
c24 26 85 92 135 146 50 53 94 97 97 97 3 0 28 -22 54 -49z m1086 -89 c72 -76
140 -149 151 -162 l21 -24 -23 -21 c-13 -12 -61 -64 -108 -115 -47 -51 -111
-121 -142 -154 l-58 -61 -47 51 c-27 29 -102 109 -168 178 -66 70 -120 130
-120 135 0 19 124 144 161 161 51 24 131 83 163 122 13 15 27 28 31 28 4 0 67
-62 139 -138z m269 84 c1 -2 -4 -17 -11 -34 l-13 -31 -32 35 c-18 19 -32 37
-32 40 0 5 82 -5 88 -10z m-1740 -12 c-9 -9 -21 -13 -27 -10 -20 13 -11 26 16
26 25 0 26 -1 11 -16z m969 -531 c173 -182 203 -215 203 -225 0 -4 -12 -20
-27 -36 -16 -16 -71 -75 -123 -132 -52 -57 -116 -126 -142 -154 l-48 -51 -36
40 c-33 36 -145 158 -261 283 -24 25 -43 48 -43 51 0 3 34 42 76 86 42 44 117
124 167 178 50 53 94 97 97 97 4 0 65 -62 137 -137z m-570 -410 c24 -27 72
-79 106 -118 84 -93 148 -165 170 -187 9 -10 17 -21 17 -26 0 -8 -149 -170
-150 -162 0 3 -47 122 -104 265 -120 297 -123 318 -39 228z m941 24 l22 -23
-101 -250 c-55 -137 -103 -255 -106 -262 -3 -8 -26 10 -62 49 -31 35 -71 79
-88 98 -18 20 -33 38 -32 41 0 5 24 32 193 213 56 60 110 120 120 133 24 30
27 30 54 1z m-402 -619 c55 -62 105 -120 112 -129 10 -14 -3 -55 -88 -262 -55
-136 -100 -252 -100 -259 -1 -24 -29 39 -130 292 -112 282 -107 248 -39 322
14 15 50 54 80 88 30 33 57 60 60 60 3 0 51 -51 105 -112z"/>
<path d="M2377 4750 c-141 -37 -316 -138 -408 -237 -79 -85 -156 -219 -175
-308 -21 -92 -11 -136 37 -160 37 -20 58 -19 96 4 25 16 36 34 58 102 64 199
210 332 450 409 105 33 138 86 100 160 -24 46 -66 54 -158 30z"/>
<path d="M3187 3952 c-25 -15 -36 -34 -44 -72 -6 -34 21 -71 77 -105 32 -20
73 -52 90 -72 51 -57 65 -100 69 -199 3 -75 99 -111 158 -60 25 22 28 31 30
91 5 163 -104 340 -253 410 -62 29 -89 31 -127 7z"/>
</g>
</svg>
